<?xml version="1.0" encoding="UTF-8"?>
<svg version="1.1" xmlns="http://www.w3.org/2000/svg" width="1024" height="1024">
<path d="M0 0 C337.92 0 675.84 0 1024 0 C1024 337.92 1024 675.84 1024 1024 C686.08 1024 348.16 1024 0 1024 C0 686.08 0 348.16 0 0 Z " fill="#FEFBF3" transform="translate(0,0)"/>
<path d="M0 0 C1.03447266 0.27457031 1.03447266 0.27457031 2.08984375 0.5546875 C3.7596941 1.03745612 5.41346417 1.57532139 7.0625 2.125 C7.0625 2.785 7.0625 3.445 7.0625 4.125 C8.01125 4.393125 8.96 4.66125 9.9375 4.9375 C13.0625 6.125 13.0625 6.125 15.0625 9.125 C16.7165731 10.22499468 16.7165731 10.22499468 18.5625 11.125 C21.49136089 12.6142513 22.11814158 13.20846237 24.0625 16.125 C24.660625 16.393125 25.25875 16.66125 25.875 16.9375 C29.65012307 18.98685252 32.19649589 22.70676138 34.41015625 26.33203125 C36.15687078 28.88285989 37.4345766 30.46366911 40.0625 32.125 C45.21125411 32.51288344 49.98312018 31.96175755 55.0625 31.125 C55.0625 30.465 55.0625 29.805 55.0625 29.125 C64.41529804 27.52254968 73.48081772 26.80496484 82.96655273 26.86425781 C84.99558492 26.87497668 87.02372868 26.86428507 89.05273438 26.8515625 C98.22677041 26.84326434 107.00634262 27.69580863 116.0625 29.125 C116.0625 29.785 116.0625 30.445 116.0625 31.125 C116.95388672 31.18107422 116.95388672 31.18107422 117.86328125 31.23828125 C124.53384587 31.7673618 130.66522899 33.19122416 137.0625 35.125 C137.0625 35.785 137.0625 36.445 137.0625 37.125 C138.3928125 37.310625 138.3928125 37.310625 139.75 37.5 C142.76637502 38.06912736 145.26576054 38.89114436 148.0625 40.125 C148.0625 40.785 148.0625 41.445 148.0625 42.125 C149.3 42.2796875 149.3 42.2796875 150.5625 42.4375 C154.65539012 43.24146056 158.18790225 44.58852158 162.0625 46.125 C162.0625 46.785 162.0625 47.445 162.0625 48.125 C163.01125 48.434375 163.96 48.74375 164.9375 49.0625 C168.0625 50.125 168.0625 50.125 170.0625 51.125 C170.0625 51.785 170.0625 52.445 170.0625 53.125 C171.7021875 53.558125 171.7021875 53.558125 173.375 54 C177.0625 55.125 177.0625 55.125 180.0625 57.125 C180.0625 57.785 180.0625 58.445 180.0625 59.125 C181.0525 59.455 182.0425 59.785 183.0625 60.125 C183.0625 61.775 183.0625 63.425 183.0625 65.125 C171.25145325 67.63671627 160.12851824 68.50603216 148.0625 68.125 C148.0625 69.115 148.0625 70.105 148.0625 71.125 C148.825625 71.269375 149.58875 71.41375 150.375 71.5625 C153.0625 72.125 153.0625 72.125 156.0625 73.125 C156.0625 73.785 156.0625 74.445 156.0625 75.125 C157.135 75.41375 158.2075 75.7025 159.3125 76 C162.15650364 76.85320109 164.49758983 77.6886503 167.0625 79.125 C167.0625 79.785 167.0625 80.445 167.0625 81.125 C167.97 81.41375 168.8775 81.7025 169.8125 82 C174.1762441 83.51052681 176.82778809 84.89028809 180.0625 88.125 C180.76375 88.475625 181.465 88.82625 182.1875 89.1875 C184.0625 90.125 184.0625 90.125 185.0625 92.125 C187.04943263 93.20362057 189.08975899 94.10273679 191.15234375 95.02734375 C193.0625 96.125 193.0625 96.125 195.0625 99.125 C196.38770503 99.80768138 197.72062182 100.4757041 199.0625 101.125 C199.3925 101.785 199.7225 102.445 200.0625 103.125 C201.3 103.8365625 201.3 103.8365625 202.5625 104.5625 C205.0625 106.125 205.0625 106.125 206.0625 109.125 C206.743125 109.3725 207.42375 109.62 208.125 109.875 C212.51650098 111.74372382 215.59463886 114.90329184 219.0625 118.125 C220.3 119.2078125 220.3 119.2078125 221.5625 120.3125 C223.0625 122.125 223.0625 122.125 223.0625 126.125 C209.4292426 129.56919134 209.4292426 129.56919134 203.0625 129.125 C203.0625 129.785 203.0625 130.445 203.0625 131.125 C197.7825 131.455 192.5025 131.785 187.0625 132.125 C188.0525 133.445 189.0425 134.765 190.0625 136.125 C190.0625 136.785 190.0625 137.445 190.0625 138.125 C190.66191406 138.38539063 191.26132812 138.64578125 191.87890625 138.9140625 C194.21188374 140.20784251 195.36027781 141.41968764 197 143.5 C198.7914402 145.68205498 200.33993252 147.34694602 202.5625 149.125 C205.31064374 151.32351499 207.33722753 153.74753305 209.5703125 156.44921875 C211.51214772 158.62997087 213.78123924 160.31341057 216.0625 162.125 C216.0625 162.785 216.0625 163.445 216.0625 164.125 C216.701875 164.393125 217.34125 164.66125 218 164.9375 C220.0625 166.125 220.0625 166.125 221.0625 169.125 C222.98447566 170.25167539 224.94777145 171.07688803 227 171.9375 C229.81920752 173.56068009 231.80183301 175.80484177 234.0625 178.125 C234.7225 178.455 235.3825 178.785 236.0625 179.125 C236.0625 179.785 236.0625 180.445 236.0625 181.125 C236.866875 181.393125 237.67125 181.66125 238.5 181.9375 C239.345625 182.329375 240.19125 182.72125 241.0625 183.125 C241.3925 184.115 241.7225 185.105 242.0625 186.125 C244.4055809 187.24585312 244.4055809 187.24585312 247.0625 188.125 C248.40300052 188.77713539 249.73911368 189.43879969 251.0625 190.125 C251.0625 190.785 251.0625 191.445 251.0625 192.125 C251.8978125 192.310625 251.8978125 192.310625 252.75 192.5 C255.3046041 193.19043354 257.65710135 194.01981684 260.0625 195.125 C260.3925 195.785 260.7225 196.445 261.0625 197.125 C262.88760997 197.90515621 264.74856676 198.60295406 266.625 199.25 C267.63691406 199.60320312 268.64882813 199.95640625 269.69140625 200.3203125 C270.47386719 200.58585938 271.25632812 200.85140625 272.0625 201.125 C272.0625 201.785 272.0625 202.445 272.0625 203.125 C272.73796875 203.25777344 273.4134375 203.39054688 274.109375 203.52734375 C275.00140625 203.70394531 275.8934375 203.88054687 276.8125 204.0625 C277.69421875 204.23652344 278.5759375 204.41054688 279.484375 204.58984375 C281.69485053 205.04868488 283.87762068 205.55836074 286.0625 206.125 C286.0625 206.785 286.0625 207.445 286.0625 208.125 C286.8359375 208.18558594 287.609375 208.24617187 288.40625 208.30859375 C289.4478125 208.39238281 290.489375 208.47617187 291.5625 208.5625 C293.09390625 208.68431641 293.09390625 208.68431641 294.65625 208.80859375 C296.96550877 209.02310059 299.26918446 209.30681072 301.5625 209.65234375 C307.86410407 210.45659575 314.22156977 210.26898482 320.5625 210.25 C322.45355469 210.25580078 322.45355469 210.25580078 324.3828125 210.26171875 C331.61146981 210.25435759 338.77128084 209.98989268 345.98222351 209.4901886 C353.61127652 208.98341212 361.23143477 208.92873878 368.875 208.9375 C369.97912735 208.93691086 369.97912735 208.93691086 371.1055603 208.93630981 C384.20170556 208.94464871 397.21303021 209.36621635 410.0625 212.125 C410.0625 212.785 410.0625 213.445 410.0625 214.125 C410.93261719 214.19847656 410.93261719 214.19847656 411.8203125 214.2734375 C416.50173092 214.72149405 420.63735459 215.423021 425.0625 217.125 C425.0625 217.785 425.0625 218.445 425.0625 219.125 C425.63097656 219.24617187 426.19945312 219.36734375 426.78515625 219.4921875 C431.60495464 220.53822054 436.3357934 221.71704484 441.0625 223.125 C441.0625 224.115 441.0625 225.105 441.0625 226.125 C440.32 226.3725 439.5775 226.62 438.8125 226.875 C435.85646573 228.21865194 434.29562872 229.81486685 432.0625 232.125 C431.4025 232.125 430.7425 232.125 430.0625 232.125 C430.0625 232.785 430.0625 233.445 430.0625 234.125 C429.0725 234.125 428.0825 234.125 427.0625 234.125 C426.4025 235.445 425.7425 236.765 425.0625 238.125 C424.0725 238.125 423.0825 238.125 422.0625 238.125 C422.0625 239.115 422.0625 240.105 422.0625 241.125 C417.84027778 244.125 417.84027778 244.125 415.0625 244.125 C414.7325 245.445 414.4025 246.765 414.0625 248.125 C413.0725 248.125 412.0825 248.125 411.0625 248.125 C410.7325 249.445 410.4025 250.765 410.0625 252.125 C409.4025 252.125 408.7425 252.125 408.0625 252.125 C408.0625 252.785 408.0625 253.445 408.0625 254.125 C406.7425 254.455 405.4225 254.785 404.0625 255.125 C403.7325 256.445 403.4025 257.765 403.0625 259.125 C402.0725 259.125 401.0825 259.125 400.0625 259.125 C400.0625 260.445 400.0625 261.765 400.0625 263.125 C399.134375 263.2178125 399.134375 263.2178125 398.1875 263.3125 C397.48625 263.580625 396.785 263.84875 396.0625 264.125 C395.35002268 265.7726038 394.68849617 267.44263529 394.0625 269.125 C392.77016393 270.49810707 391.43812854 271.83534824 390.0625 273.125 C389.4025 274.115 388.7425 275.105 388.0625 276.125 C387.4025 276.125 386.7425 276.125 386.0625 276.125 C384.98724806 278.77728812 383.96793849 281.40868454 383.0625 284.125 C382.0725 284.125 381.0825 284.125 380.0625 284.125 C379.629375 285.8265625 379.629375 285.8265625 379.1875 287.5625 C378.81625 288.738125 378.445 289.91375 378.0625 291.125 C377.4025 291.455 376.7425 291.785 376.0625 292.125 C375.7325 293.115 375.4025 294.105 375.0625 295.125 C374.4025 295.125 373.7425 295.125 373.0625 295.125 C372.7325 296.775 372.4025 298.425 372.0625 300.125 C371.4025 300.125 370.7425 300.125 370.0625 300.125 C369.0725 303.095 368.0825 306.065 367.0625 309.125 C366.0725 309.125 365.0825 309.125 364.0625 309.125 C363.7325 311.105 363.4025 313.085 363.0625 315.125 C362.0725 315.455 361.0825 315.785 360.0625 316.125 C359.93875 316.99125 359.815 317.8575 359.6875 318.75 C359.08191879 322.02013853 358.17943965 324.99756899 357.0625 328.125 C356.4025 328.125 355.7425 328.125 355.0625 328.125 C354.89814453 329.08212891 354.89814453 329.08212891 354.73046875 330.05859375 C354.57191406 330.88488281 354.41335938 331.71117187 354.25 332.5625 C354.09917969 333.38621094 353.94835937 334.20992187 353.79296875 335.05859375 C353.55191406 335.74050781 353.31085938 336.42242188 353.0625 337.125 C352.0725 337.455 351.0825 337.785 350.0625 338.125 C349.93875 339.32125 349.815 340.5175 349.6875 341.75 C349.23924946 345.40096813 348.35803163 348.67024899 347.0625 352.125 C346.4025 352.125 345.7425 352.125 345.0625 352.125 C344.93875 353.300625 344.815 354.47625 344.6875 355.6875 C344.19814065 359.66620426 343.2569795 363.30266559 342.0625 367.125 C340.125 366.375 340.125 366.375 338.0625 365.125 C337.3125 363 337.3125 363 337.0625 361.125 C335.4125 361.125 333.7625 361.125 332.0625 361.125 C332.0625 361.785 332.0625 362.445 332.0625 363.125 C329.54409185 363.802219 327.02341276 364.46691174 324.5 365.125 C323.44329102 365.41117188 323.44329102 365.41117188 322.36523438 365.703125 C317.79189791 366.88334086 313.78473635 367.32356973 309.0625 367.125 C309.0625 367.785 309.0625 368.445 309.0625 369.125 C306.08461984 369.63393577 303.1055746 370.13230636 300.125 370.625 C299.29419922 370.76808594 298.46339844 370.91117188 297.60742188 371.05859375 C292.01646627 371.97229077 286.72756422 372.26219631 281.0625 372.125 C281.0625 372.785 281.0625 373.445 281.0625 374.125 C268.73224697 375.36793481 256.40040079 375.27746416 244.02148438 375.25537109 C240.43875925 375.25000189 236.85615887 375.25534729 233.2734375 375.26171875 C230.96093723 375.26105803 228.64843703 375.25977699 226.3359375 375.2578125 C225.28248138 375.25983673 224.22902527 375.26186096 223.14364624 375.26394653 C216.07276807 375.2419875 209.09941612 374.8117839 202.0625 374.125 C202.0625 373.465 202.0625 372.805 202.0625 372.125 C200.886875 372.186875 199.71125 372.24875 198.5 372.3125 C191.55425052 372.34589303 184.80943255 370.61839218 178.0625 369.125 C178.0625 368.465 178.0625 367.805 178.0625 367.125 C177.45664062 367.08761719 176.85078125 367.05023437 176.2265625 367.01171875 C169.84388306 366.5109239 164.12033632 365.17435314 158.0625 363.125 C158.0625 362.465 158.0625 361.805 158.0625 361.125 C157.07121094 360.99222656 156.07992188 360.85945313 155.05859375 360.72265625 C151.0484719 360.1497817 147.09222314 359.37618954 143.125 358.5625 C142.44115234 358.42392578 141.75730469 358.28535156 141.05273438 358.14257812 C139.38896014 357.80516936 137.72567685 357.46534121 136.0625 357.125 C136.0625 356.465 136.0625 355.805 136.0625 355.125 C134.0825 355.125 132.1025 355.125 130.0625 355.125 C130.0625 355.785 130.0625 356.445 130.0625 357.125 C121.36479721 358.92563348 112.88155682 359.28726497 104.03125 359.25 C102.28088692 359.24601196 102.28088692 359.24601196 100.49516296 359.24194336 C86.63279121 359.16971106 72.78347882 358.69292443 58.93127441 358.19787598 C55.43021211 358.07379559 51.92896539 357.95514445 48.42773438 357.8359375 C41.6391412 357.60405367 34.85075727 357.36651385 28.0625 357.125 C28.0625 356.465 28.0625 355.805 28.0625 355.125 C17.8325 355.125 7.6025 355.125 -2.9375 355.125 C-2.9375 355.785 -2.9375 356.445 -2.9375 357.125 C-4.195625 357.516875 -5.45375 357.90875 -6.75 358.3125 C-10.70371413 359.76986552 -12.10472287 361.25580383 -13.9375 365.125 C-14.5975 365.455 -15.2575 365.785 -15.9375 366.125 C-16.84093684 368.00763881 -16.84093684 368.00763881 -17.5625 370.1875 C-17.82289063 370.92097656 -18.08328125 371.65445312 -18.3515625 372.41015625 C-18.54492188 372.97605469 -18.73828125 373.54195312 -18.9375 374.125 C-19.5975 374.125 -20.2575 374.125 -20.9375 374.125 C-21.246875 375.07375 -21.55625 376.0225 -21.875 377 C-22.9375 380.125 -22.9375 380.125 -23.9375 382.125 C-24.5975 382.125 -25.2575 382.125 -25.9375 382.125 C-26.06125 382.8675 -26.185 383.61 -26.3125 384.375 C-26.89236701 386.92641485 -27.67458739 388.8517573 -28.9375 391.125 C-29.5975 391.125 -30.2575 391.125 -30.9375 391.125 C-31.24494141 392.04732422 -31.24494141 392.04732422 -31.55859375 392.98828125 C-34.9375 403.125 -34.9375 403.125 -36.9375 404.125 C-37.99102843 406.43465848 -38.99469096 408.7679774 -39.9375 411.125 C-40.5975 411.125 -41.2575 411.125 -41.9375 411.125 C-43.33355602 416.38705732 -44.45808649 421.67824348 -43.3125 427.0625 C-41.51905248 429.75267129 -39.98846208 430.1806546 -36.9375 431.125 C-35.59699948 431.77713539 -34.26088632 432.43879969 -32.9375 433.125 C-32.9375 433.785 -32.9375 434.445 -32.9375 435.125 C-32.31875 435.2075 -31.7 435.29 -31.0625 435.375 C-28.9375 436.125 -28.9375 436.125 -27.81640625 437.82421875 C-26.76258128 440.58289834 -26.7058937 442.74039698 -26.75 445.6875 C-26.75644531 446.63753906 -26.76289063 447.58757812 -26.76953125 448.56640625 C-26.9375 451.125 -26.9375 451.125 -27.9375 454.125 C-26.2875 454.125 -24.6375 454.125 -22.9375 454.125 C-22.9375 454.455 -22.9375 454.785 -22.9375 455.125 C-25.5775 455.125 -28.2175 455.125 -30.9375 455.125 C-31.040625 455.681875 -31.14375 456.23875 -31.25 456.8125 C-32.67392183 461.60205523 -35.42001168 464.70801135 -38.9375 468.125 C-40.46879227 469.91419413 -41.9759868 471.72082747 -43.47265625 473.5390625 C-44.9375 475.125 -44.9375 475.125 -47.9375 477.125 C-48.61921328 478.4507033 -49.28497921 479.78468703 -49.9375 481.125 C-53.125124 484.79202919 -55.78155696 486.92907745 -60.625 487.75 C-64.61603868 486.99697383 -65.65418572 486.46842448 -67.9375 483.125 C-69.11700719 480.17114794 -70.0743945 477.18510132 -70.9375 474.125 C-71.5975 474.125 -72.2575 474.125 -72.9375 474.125 C-73.44262244 472.52243892 -73.94141627 470.91788208 -74.4375 469.3125 C-74.7159375 468.41917969 -74.994375 467.52585937 -75.28125 466.60546875 C-75.9375 464.125 -75.9375 464.125 -75.9375 461.125 C-76.5975 461.125 -77.2575 461.125 -77.9375 461.125 C-78.9275 457.825 -79.9175 454.525 -80.9375 451.125 C-81.5975 451.125 -82.2575 451.125 -82.9375 451.125 C-83.44262244 449.52243892 -83.94141627 447.91788208 -84.4375 446.3125 C-84.7159375 445.41917969 -84.994375 444.52585937 -85.28125 443.60546875 C-85.9375 441.125 -85.9375 441.125 -85.9375 438.125 C-86.5975 438.125 -87.2575 438.125 -87.9375 438.125 C-92.34047925 429.31904149 -92.53930079 417.94517286 -89.4375 408.625 C-88.9425 407.47 -88.4475 406.315 -87.9375 405.125 C-87.2775 405.125 -86.6175 405.125 -85.9375 405.125 C-84.9475 401.495 -83.9575 397.865 -82.9375 394.125 C-82.2775 394.125 -81.6175 394.125 -80.9375 394.125 C-79.9475 390.495 -78.9575 386.865 -77.9375 383.125 C-77.2775 383.125 -76.6175 383.125 -75.9375 383.125 C-74.9475 379.495 -73.9575 375.865 -72.9375 372.125 C-72.2775 372.125 -71.6175 372.125 -70.9375 372.125 C-70.73253906 371.35414063 -70.52757813 370.58328125 -70.31640625 369.7890625 C-70.04699219 368.78617188 -69.77757813 367.78328125 -69.5 366.75 C-69.23316406 365.75226563 -68.96632813 364.75453125 -68.69140625 363.7265625 C-67.9375 361.125 -67.9375 361.125 -66.9375 359.125 C-66.2775 359.125 -65.6175 359.125 -64.9375 359.125 C-63.9475 355.495 -62.9575 351.865 -61.9375 348.125 C-61.2775 348.125 -60.6175 348.125 -59.9375 348.125 C-58.9475 344.495 -57.9575 340.865 -56.9375 337.125 C-56.2775 337.125 -55.6175 337.125 -54.9375 337.125 C-53.4525 332.175 -53.4525 332.175 -51.9375 327.125 C-51.2775 327.125 -50.6175 327.125 -49.9375 327.125 C-49.628125 326.17625 -49.31875 325.2275 -49 324.25 C-47.9375 321.125 -47.9375 321.125 -46.9375 319.125 C-46.2775 319.125 -45.6175 319.125 -44.9375 319.125 C-44.69 318.50625 -44.4425 317.8875 -44.1875 317.25 C-42.71503937 314.74681694 -41.52721163 314.29454719 -38.9375 313.125 C-38.6075 312.465 -38.2775 311.805 -37.9375 311.125 C-33.95300313 309.17034116 -31.41475284 308.125 -26.9375 308.125 C-26.9375 307.465 -26.9375 306.805 -26.9375 306.125 C-23.70995186 305.45033254 -20.48023065 304.78669431 -17.25 304.125 C-15.88198242 303.83882812 -15.88198242 303.83882812 -14.48632812 303.546875 C-13.15698242 303.27617188 -13.15698242 303.27617188 -11.80078125 303 C-10.98907471 302.83242188 -10.17736816 302.66484375 -9.34106445 302.4921875 C-6.83688135 302.1096287 -4.46674498 302.06201491 -1.9375 302.125 C-1.9375 301.465 -1.9375 300.805 -1.9375 300.125 C0.64502893 299.62050598 3.22838703 299.12125699 5.8125 298.625 C6.54210937 298.48191406 7.27171875 298.33882812 8.0234375 298.19140625 C11.45593532 297.53611121 14.55419491 297.125 18.0625 297.125 C18.0625 296.465 18.0625 295.805 18.0625 295.125 C21.47800296 294.45227653 24.89507452 293.78788201 28.3125 293.125 C29.76462891 292.83882812 29.76462891 292.83882812 31.24609375 292.546875 C32.64794922 292.27617188 32.64794922 292.27617188 34.078125 292 C34.93696289 291.83242188 35.79580078 291.66484375 36.68066406 291.4921875 C39.0625 291.125 39.0625 291.125 43.0625 291.125 C43.0625 290.465 43.0625 289.805 43.0625 289.125 C45.3725 288.795 47.6825 288.465 50.0625 288.125 C50.05726318 287.42938965 50.05202637 286.7337793 50.04663086 286.01708984 C50.02575663 282.84473587 50.01280668 279.67239639 50 276.5 C49.99162109 275.40558594 49.98324219 274.31117188 49.97460938 273.18359375 C49.97138672 272.12011719 49.96816406 271.05664062 49.96484375 269.9609375 C49.95960693 268.98688965 49.95437012 268.0128418 49.94897461 267.00927734 C50.06835494 263.97624679 50.50383276 261.10584732 51.0625 258.125 C51.7225 258.125 52.3825 258.125 53.0625 258.125 C53.0625 242.285 53.0625 226.445 53.0625 210.125 C52.4025 210.125 51.7425 210.125 51.0625 210.125 C50.55800598 207.54247107 50.05875699 204.95911297 49.5625 202.375 C49.41941406 201.64539063 49.27632812 200.91578125 49.12890625 200.1640625 C48.47361121 196.73156468 48.0625 193.63330509 48.0625 190.125 C47.4025 190.125 46.7425 190.125 46.0625 190.125 C45.55814306 188.1886296 45.05916126 186.25085854 44.5625 184.3125 C44.14484375 182.69408203 44.14484375 182.69408203 43.71875 181.04296875 C43.0625 178.125 43.0625 178.125 43.0625 175.125 C42.4025 175.125 41.7425 175.125 41.0625 175.125 C40.55613393 173.37683142 40.05765381 171.62637737 39.5625 169.875 C39.2840625 168.90046875 39.005625 167.9259375 38.71875 166.921875 C38.0625 164.125 38.0625 164.125 38.0625 160.125 C37.4025 160.125 36.7425 160.125 36.0625 160.125 C35.7325 158.475 35.4025 156.825 35.0625 155.125 C33.4125 155.455 31.7625 155.785 30.0625 156.125 C30.0625 156.785 30.0625 157.445 30.0625 158.125 C26.0353176 160.33036179 22.62704251 161.58160208 18.0625 162.125 C18.0625 162.785 18.0625 163.445 18.0625 164.125 C15.6888603 164.63234284 13.31392575 165.13102386 10.9375 165.625 C10.27234375 165.76808594 9.6071875 165.91117188 8.921875 166.05859375 C4.90193578 166.8862283 1.16345101 167.27830658 -2.9375 167.125 C-2.9375 167.785 -2.9375 168.445 -2.9375 169.125 C-4.09765625 169.16238281 -5.2578125 169.19976562 -6.453125 169.23828125 C-15.62245415 169.60092674 -24.11247284 170.373668 -32.9375 173.125 C-32.9375 173.785 -32.9375 174.445 -32.9375 175.125 C-39.5625 179.125 -39.5625 179.125 -42.9375 179.125 C-43.205625 179.764375 -43.47375 180.40375 -43.75 181.0625 C-44.9375 183.125 -44.9375 183.125 -47.9375 184.125 C-49.29182675 185.43700404 -50.62483482 186.77131404 -51.9375 188.125 C-54.9375 190.125 -54.9375 190.125 -57.9375 190.125 C-57.9375 190.785 -57.9375 191.445 -57.9375 192.125 C-65.64995155 194.80759184 -73.27063418 195.35315403 -80.9375 192.125 C-80.9375 191.465 -80.9375 190.805 -80.9375 190.125 C-82.04544922 189.97998047 -82.04544922 189.97998047 -83.17578125 189.83203125 C-86.30412268 189.03114045 -87.7457616 187.96163798 -90.125 185.8125 C-90.79917969 185.21824219 -91.47335938 184.62398437 -92.16796875 184.01171875 C-93.93545169 182.12718396 -94.86420261 180.45292814 -95.9375 178.125 C-96.4325 177.67125 -96.9275 177.2175 -97.4375 176.75 C-102.11887366 171.67851187 -101.27649487 164.1346625 -101.20703125 157.71875 C-100.88775675 153.46175672 -100.07367169 150.77429331 -97.9375 147.125 C-97.2775 147.125 -96.6175 147.125 -95.9375 147.125 C-95.81375 146.526875 -95.69 145.92875 -95.5625 145.3125 C-94.9375 143.125 -94.9375 143.125 -92.9375 140.125 C-92.2775 140.125 -91.6175 140.125 -90.9375 140.125 C-90.710625 139.568125 -90.48375 139.01125 -90.25 138.4375 C-88.58447681 135.50300676 -86.31528824 133.50278824 -83.9375 131.125 C-83.6075 130.135 -83.2775 129.145 -82.9375 128.125 C-80.9908282 126.28100979 -78.92949281 124.63030088 -76.84765625 122.94140625 C-74.88671147 121.07670416 -74.06083718 119.55238512 -72.9375 117.125 C-70.39033435 114.38189854 -68.05609984 112.20406656 -64.9375 110.125 C-64.525 109.3825 -64.1125 108.64 -63.6875 107.875 C-62.05079975 105.30304246 -60.75653824 104.01530848 -58.4375 102.125 C-56.23748669 100.32748393 -54.95983915 99.16287943 -53.5 96.6875 C-51.46662341 93.35276239 -48.79888982 91.30746144 -45.77734375 88.87109375 C-43.85623981 87.24657417 -43.85623981 87.24657417 -42.9375 85.125 C-41.69342074 82.63684148 -40.15712713 81.42685949 -38 79.6875 C-35.6370057 77.69649765 -34.03517415 76.28779024 -32.4375 73.625 C-30.48992642 70.37904404 -27.92560254 68.43342203 -25.046875 66.01171875 C-22.98013628 64.16313578 -21.22347697 62.24277544 -19.4375 60.125 C-16.48125011 56.63554522 -13.2863008 53.68280455 -9.796875 50.734375 C-8.12358645 49.28606642 -6.58969104 47.78655886 -5.0625 46.1875 C-2.9375 44.125 -2.9375 44.125 -0.9375 44.125 C-1.1540625 43.11179687 -1.370625 42.09859375 -1.59375 41.0546875 C-1.87531199 39.70318996 -2.1565445 38.35162375 -2.4375 37 C-2.58058594 36.33484375 -2.72367187 35.6696875 -2.87109375 34.984375 C-3.6987283 30.96443578 -4.09080658 27.22595101 -3.9375 23.125 C-4.5975 23.125 -5.2575 23.125 -5.9375 23.125 C-5.9375 15.535 -5.9375 7.945 -5.9375 0.125 C-3.43105411 -1.12822294 -2.65203873 -0.72103846 0 0 Z " fill="#A94E2B" transform="translate(183.9375,253.875)"/>
<path d="M0 0 C7.56756757 4.32432432 7.56756757 4.32432432 10 7 C10.99 7.66 11.98 8.32 13 9 C13 9.99 13 10.98 13 12 C14.32 12 15.64 12 17 12 C17.33 12.66 17.66 13.32 18 14 C18.99 14.33 19.98 14.66 21 15 C21.66 15.99 22.32 16.98 23 18 C23.86625 18.515625 24.7325 19.03125 25.625 19.5625 C26.40875 20.036875 27.1925 20.51125 28 21 C28 21.66 28 22.32 28 23 C29.32 23.33 30.64 23.66 32 24 C32 24.66 32 25.32 32 26 C32.66 26 33.32 26 34 26 C34 26.66 34 27.32 34 28 C35.65 28.66 37.3 29.32 39 30 C39 30.66 39 31.32 39 32 C39.99 32 40.98 32 42 32 C43.37849103 33.28659163 44.70529025 34.62913085 46 36 C47.66270287 37.33827304 49.32916181 38.67189785 51 40 C52.8125 41.625 52.8125 41.625 54 43 C54 43.66 54 44.32 54 45 C54.86625 45.185625 54.86625 45.185625 55.75 45.375 C59.82826404 46.50785112 61.60388152 47.40582229 64 51 C66.05003955 52.19232613 66.05003955 52.19232613 68 53 C68 53.99 68 54.98 68 56 C69.32 56 70.64 56 72 56 C72 56.66 72 57.32 72 58 C72.99 58.33 73.98 58.66 75 59 C75 59.66 75 60.32 75 61 C76.32 61.33 77.64 61.66 79 62 C79 62.66 79 63.32 79 64 C79.639375 64.12375 80.27875 64.2475 80.9375 64.375 C81.618125 64.58125 82.29875 64.7875 83 65 C83.33 65.66 83.66 66.32 84 67 C84.825 67.495 85.65 67.99 86.5 68.5 C89 70 89 70 90 72 C92.01669827 73.13350534 92.01669827 73.13350534 94 74 C94 74.66 94 75.32 94 76 C95.32 76 96.64 76 98 76 C98.33 76.99 98.66 77.98 99 79 C100.3153341 79.70151152 101.65117592 80.36525925 103 81 C104.0194119 81.98020375 105.02246356 82.97803008 106 84 C106.66 84.33 107.32 84.66 108 85 C108 85.66 108 86.32 108 87 C108.99 87 109.98 87 111 87 C111 87.99 111 88.98 111 90 C112.65 90.66 114.3 91.32 116 92 C116 92.66 116 93.32 116 94 C116.763125 94.28875 117.52625 94.5775 118.3125 94.875 C121 96 121 96 124 98 C124 98.66 124 99.32 124 100 C124.66 100 125.32 100 126 100 C126 100.66 126 101.32 126 102 C126.639375 102.12375 127.27875 102.2475 127.9375 102.375 C128.618125 102.58125 129.29875 102.7875 130 103 C130.33 103.66 130.66 104.32 131 105 C131.99 105.33 132.98 105.66 134 106 C134 106.66 134 107.32 134 108 C134.99 108.33 135.98 108.66 137 109 C137 109.66 137 110.32 137 111 C137.7425 111.28875 138.485 111.5775 139.25 111.875 C143.22955691 113.50300055 146.01815555 114.88851014 149 118 C149.99 118.66 150.98 119.32 152 120 C152 120.99 152 121.98 152 123 C152.86625 123.185625 152.86625 123.185625 153.75 123.375 C158.2669079 124.62969664 160.75694036 126.64883837 164 130 C164.66 130.33 165.32 130.66 166 131 C166 131.99 166 132.98 166 134 C166.78375 134.309375 167.5675 134.61875 168.375 134.9375 C171 136 171 136 173 137 C173 137.99 173 138.98 173 140 C174.65 140.66 176.3 141.32 178 142 C178 142.66 178 143.32 178 144 C178.7425 144.28875 179.485 144.5775 180.25 144.875 C181.1575 145.24625 182.065 145.6175 183 146 C183.7425 146.28875 184.485 146.5775 185.25 146.875 C187 148 187 148 187.75 150.125 C187.8325 150.74375 187.915 151.3625 188 152 C189.32 152 190.64 152 192 152 C192.33 152.99 192.66 153.98 193 155 C194.76505947 156.09135074 194.76505947 156.09135074 196.875 156.9375 C200.25317031 158.50314043 201.93394887 159.84655353 204 163 C204.99 163.33 205.98 163.66 207 164 C207 164.99 207 165.98 207 167 C207.78375 167.309375 208.5675 167.61875 209.375 167.9375 C212 169 212 169 214 170 C214 170.66 214 171.32 214 172 C214.639375 172.268125 215.27875 172.53625 215.9375 172.8125 C218 174 218 174 219 177 C219.99 177 220.98 177 222 177 C222 177.99 222 178.98 222 180 C221.01 180.33 220.02 180.66 219 181 C218.34 181.99 217.68 182.98 217 184 C216.01 184 215.02 184 214 184 C214 184.66 214 185.32 214 186 C213.34 186 212.68 186 212 186 C211.67 186.99 211.34 187.98 211 189 C206.66666667 192 206.66666667 192 204 192 C203.67 192.99 203.34 193.98 203 195 C202.34 195.33 201.68 195.66 201 196 C200.67 196.99 200.34 197.98 200 199 C198.68 199 197.36 199 196 199 C195.67 199.99 195.34 200.98 195 202 C194.01 202.33 193.02 202.66 192 203 C191.34 203.99 190.68 204.98 190 206 C185.55555556 209 185.55555556 209 183 209 C183 209.66 183 210.32 183 211 C182.34 211 181.68 211 181 211 C181 211.66 181 212.32 181 213 C180.01 213.33 179.02 213.66 178 214 C177.34 214.99 176.68 215.98 176 217 C175.01 217 174.02 217 173 217 C173 217.66 173 218.32 173 219 C170.43981482 221.21421421 167.81699062 223.12200625 165 225 C164.67 225.99 164.34 226.98 164 228 C162.68 228 161.36 228 160 228 C159.67 228.99 159.34 229.98 159 231 C158.01 231 157.02 231 156 231 C155.67 231.99 155.34 232.98 155 234 C153.67532254 234.6837045 152.34136367 235.34964186 151 236 C150.34 236.99 149.68 237.98 149 239 C144.55555556 242 144.55555556 242 142 242 C141.67 242.99 141.34 243.98 141 245 C139.68352881 245.69937532 138.34977849 246.36729133 137 247 C136.67 247.66 136.34 248.32 136 249 C135.34 249 134.68 249 134 249 C134 249.66 134 250.32 134 251 C133.38125 251.268125 132.7625 251.53625 132.125 251.8125 C129.7004767 252.95556848 129.7004767 252.95556848 128 256 C126.67479497 256.68268138 125.34187818 257.3507041 124 258 C123.67 258.66 123.34 259.32 123 260 C122.01 260.33 121.02 260.66 120 261 C119.67 261.66 119.34 262.32 119 263 C117.68 263 116.36 263 115 263 C114.9175 263.61875 114.835 264.2375 114.75 264.875 C114 267 114 267 112.0625 268.0625 C111.381875 268.371875 110.70125 268.68125 110 269 C109.34 269.99 108.68 270.98 108 272 C107.01 272 106.02 272 105 272 C105 272.66 105 273.32 105 274 C104.360625 274.103125 103.72125 274.20625 103.0625 274.3125 C102.0415625 274.6528125 102.0415625 274.6528125 101 275 C100.67 275.99 100.34 276.98 100 278 C99.34 278 98.68 278 98 278 C98 278.66 98 279.32 98 280 C97.01 280 96.02 280 95 280 C94.7525 280.61875 94.505 281.2375 94.25 281.875 C92.76718549 284.39578467 91.59136042 284.7852998 89 286 C88.34 286.99 87.68 287.98 87 289 C84.36034793 290.61785127 83.15987325 291 80 291 C79.9175 291.61875 79.835 292.2375 79.75 292.875 C79 295 79 295 77.125 296.0625 C76.42375 296.371875 75.7225 296.68125 75 297 C73.49985609 298.33289654 73.49985609 298.33289654 72 300 C68.85385396 303.31173267 65.93427951 305.70500362 62 308 C61.67 308.66 61.34 309.32 61 310 C60.01 310.33 59.02 310.66 58 311 C57.67 311.66 57.34 312.32 57 313 C55.68 313 54.36 313 53 313 C52.9175 313.61875 52.835 314.2375 52.75 314.875 C52 317 52 317 50 318.125 C49.34 318.41375 48.68 318.7025 48 319 C47.67 319.66 47.34 320.32 47 321 C46.01 321.33 45.02 321.66 44 322 C43.67 322.66 43.34 323.32 43 324 C41.68 324 40.36 324 39 324 C38.9175 324.61875 38.835 325.2375 38.75 325.875 C38 328 38 328 36.1875 329 C35.465625 329.33 34.74375 329.66 34 330 C32.62298702 331.28817344 31.29355827 332.62804426 30 334 C27.11640946 337.02777007 24.78335218 339.24344363 21 341 C20.67 341.66 20.34 342.32 20 343 C19.01 343 18.02 343 17 343 C16.67 343.99 16.34 344.98 16 346 C15.01 346.33 14.02 346.66 13 347 C11.27822943 348.57205139 9.75332132 350.27219716 8.1875 352 C6 354 6 354 0 357 C0 320.7 0 284.4 0 247 C-4.29 247 -8.58 247 -13 247 C-13 247.66 -13 248.32 -13 249 C-14.07701172 249.05607422 -14.07701172 249.05607422 -15.17578125 249.11328125 C-23.06671393 249.61444883 -30.75783415 250.66441887 -38.55004883 251.98364258 C-39.32888428 252.11407959 -40.10771973 252.2445166 -40.91015625 252.37890625 C-41.94861694 252.55788452 -41.94861694 252.55788452 -43.00805664 252.74047852 C-45 253 -45 253 -49 253 C-49 253.66 -49 254.32 -49 255 C-51.08201528 255.50546036 -53.16567067 256.00416835 -55.25 256.5 C-56.99023438 256.91765625 -56.99023438 256.91765625 -58.765625 257.34375 C-62 258 -62 258 -66 258 C-66 258.66 -66 259.32 -66 260 C-67.07121094 260.26554687 -68.14242187 260.53109375 -69.24609375 260.8046875 C-70.64333805 261.16103168 -72.04046764 261.51782582 -73.4375 261.875 C-74.14455078 262.04902344 -74.85160156 262.22304688 -75.58007812 262.40234375 C-77.40368957 262.87351608 -79.20443229 263.43123057 -81 264 C-81.33 264.66 -81.66 265.32 -82 266 C-84.55269648 266.88635295 -87.13619737 267.53559704 -89.75 268.21875 C-92.17453207 268.7671887 -92.17453207 268.7671887 -93 271 C-94.11375 271.144375 -95.2275 271.28875 -96.375 271.4375 C-100.18399843 272.02855148 -100.58777541 272.35803974 -103 275 C-104.32 275 -105.64 275 -107 275 C-107 275.66 -107 276.32 -107 277 C-109.31 277 -111.62 277 -114 277 C-114 277.66 -114 278.32 -114 279 C-114.99 279.33 -115.98 279.66 -117 280 C-118.35432675 281.31200404 -119.68733482 282.64631404 -121 284 C-124 286 -124 286 -127 286 C-127 286.66 -127 287.32 -127 288 C-129.97411124 289.23921302 -132.85262818 290.30058404 -136 291 C-136 291.66 -136 292.32 -136 293 C-137.65 293.66 -139.3 294.32 -141 295 C-141 295.66 -141 296.32 -141 297 C-141.66 297 -142.32 297 -143 297 C-143 297.99 -143 298.98 -143 300 C-143.62648438 300.17015625 -144.25296875 300.3403125 -144.8984375 300.515625 C-145.71570313 300.75796875 -146.53296875 301.0003125 -147.375 301.25 C-148.18710937 301.48203125 -148.99921875 301.7140625 -149.8359375 301.953125 C-152.49231453 303.23815937 -152.81708975 304.38069873 -154 307 C-156.625 307.75 -156.625 307.75 -159 308 C-159.33 309.32 -159.66 310.64 -160 312 C-161.65 312.33 -163.3 312.66 -165 313 C-165 313.99 -165 314.98 -165 316 C-166.0725 316.33 -167.145 316.66 -168.25 317 C-171.5605194 318.38828233 -172.72905616 319.76799433 -174.25 323 C-174.52328125 323.680625 -174.7965625 324.36125 -175.078125 325.0625 C-176.09167077 327.192664 -177.29914035 328.39058441 -179 330 C-179.33 330.66 -179.66 331.32 -180 332 C-180.99 332 -181.98 332 -183 332 C-183.33 333.32 -183.66 334.64 -184 336 C-184.66 336 -185.32 336 -186 336 C-186 336.66 -186 337.32 -186 338 C-186.66 338 -187.32 338 -188 338 C-188.185625 339.60875 -188.185625 339.60875 -188.375 341.25 C-188.89643936 344.37863615 -189.40088254 346.33480424 -191 349 C-191.99 349 -192.98 349 -194 349 C-194 349.99 -194 350.98 -194 352 C-194.66 352 -195.32 352 -196 352 C-196 352.99 -196 353.98 -196 355 C-197 356 -198 357 -199 358 C-200.19027984 360.59915538 -200.19027984 360.59915538 -201 363 C-201.99 363 -202.98 363 -204 363 C-204.144375 363.763125 -204.28875 364.52625 -204.4375 365.3125 C-205 368 -205 368 -206 371 C-206.99 371 -207.98 371 -209 371 C-209.12375 371.886875 -209.2475 372.77375 -209.375 373.6875 C-210.71017274 380.76391555 -210.71017274 380.76391555 -213.5 383.4375 C-215.62717155 385.6533037 -216.15956851 388.09081407 -217 391 C-217.66 391 -218.32 391 -219 391 C-219.13277344 391.62648438 -219.26554688 392.25296875 -219.40234375 392.8984375 C-219.57894531 393.71570313 -219.75554688 394.53296875 -219.9375 395.375 C-220.11152344 396.18710937 -220.28554688 396.99921875 -220.46484375 397.8359375 C-221 400 -221 400 -222 402 C-222.66 402 -223.32 402 -224 402 C-224.12375 402.845625 -224.2475 403.69125 -224.375 404.5625 C-225.02770327 408.15236798 -225.95247463 411.50824875 -227 415 C-227.66 415 -228.32 415 -229 415 C-229.99 417.97 -230.98 420.94 -232 424 C-232.66 424 -233.32 424 -234 424 C-234.12375 425.258125 -234.2475 426.51625 -234.375 427.8125 C-234.69868059 431.10325263 -235.06604999 432.09907498 -237 435 C-237.66 435 -238.32 435 -239 435 C-239.103125 436.175625 -239.20625 437.35125 -239.3125 438.5625 C-239.82914958 442.82485903 -241.1508361 446.14087534 -243 450 C-243.66 450 -244.32 450 -245 450 C-245.12375 451.0725 -245.2475 452.145 -245.375 453.25 C-245.89643936 456.37863615 -246.40088254 458.33480424 -248 461 C-248.66 461 -249.32 461 -250 461 C-250.495 462.98 -250.495 462.98 -251 465 C-251.02349776 450.57750666 -251.04099448 436.15501635 -251.05181217 421.73250771 C-251.05693962 415.03390434 -251.06404187 408.33531472 -251.07543945 401.63671875 C-251.08639045 395.15926361 -251.09230244 388.68182084 -251.09487724 382.20435715 C-251.09670966 379.74632955 -251.10028736 377.28830255 -251.10573006 374.8302803 C-251.13471844 361.18247569 -250.97509592 347.61623913 -250 334 C-249.34 334 -248.68 334 -248 334 C-247.92652344 333.03513672 -247.92652344 333.03513672 -247.8515625 332.05078125 C-247.23832612 324.63907948 -246.20157431 317.33776934 -245 310 C-244.34 310 -243.68 310 -243 310 C-243.04125 309.00871094 -243.0825 308.01742188 -243.125 306.99609375 C-242.99082164 302.70657916 -242.18795232 299.15210613 -241 295.0625 C-240.71382812 294.03672852 -240.71382812 294.03672852 -240.421875 292.99023438 C-239.95595063 291.32455474 -239.47911589 289.66193325 -239 288 C-238.34 288 -237.68 288 -237 288 C-236.80083984 286.98679687 -236.80083984 286.98679687 -236.59765625 285.953125 C-236.42105469 285.06109375 -236.24445312 284.1690625 -236.0625 283.25 C-235.80146484 281.92742187 -235.80146484 281.92742187 -235.53515625 280.578125 C-235.35855469 279.72734375 -235.18195312 278.8765625 -235 278 C-234.85433594 277.25234375 -234.70867188 276.5046875 -234.55859375 275.734375 C-234.37425781 275.16203125 -234.18992187 274.5896875 -234 274 C-233.34 273.67 -232.68 273.34 -232 273 C-231.09274566 270.88672575 -231.09274566 270.88672575 -230.375 268.4375 C-229.98441406 267.19806641 -229.98441406 267.19806641 -229.5859375 265.93359375 C-229.39257812 265.29550781 -229.19921875 264.65742187 -229 264 C-228.34 264 -227.68 264 -227 264 C-226.87625 263.13375 -226.7525 262.2675 -226.625 261.375 C-225.67591374 256.24993418 -224.78767178 252.62299039 -221 249 C-220.28552357 246.89667109 -220.28552357 246.89667109 -220 245 C-219.01 245 -218.02 245 -217 245 C-216.814375 243.6078125 -216.814375 243.6078125 -216.625 242.1875 C-216 239 -216 239 -214 236 C-213.34 236 -212.68 236 -212 236 C-211.67 234.35 -211.34 232.7 -211 231 C-210.34 231 -209.68 231 -209 231 C-208.67 229.68 -208.34 228.36 -208 227 C-207.34 227 -206.68 227 -206 227 C-205.855625 226.21625 -205.71125 225.4325 -205.5625 224.625 C-205 222 -205 222 -204 220 C-203.01 220 -202.02 220 -201 220 C-200.87625 219.4225 -200.7525 218.845 -200.625 218.25 C-199.51496915 214.25388894 -197.91376031 211.87856997 -195 209 C-193.98963896 207.84229465 -192.98977302 206.67535547 -192 205.5 C-188.11009174 200.88073394 -188.11009174 200.88073394 -186 199 C-185.34 199 -184.68 199 -184 199 C-184 197.68 -184 196.36 -184 195 C-183.01 194.67 -182.02 194.34 -181 194 C-180.67 193.01 -180.34 192.02 -180 191 C-177.9375 190.3125 -177.9375 190.3125 -176 190 C-176 189.34 -176 188.68 -176 188 C-175.34 188 -174.68 188 -174 188 C-173.896875 187.360625 -173.79375 186.72125 -173.6875 186.0625 C-173.460625 185.381875 -173.23375 184.70125 -173 184 C-172.01 183.67 -171.02 183.34 -170 183 C-169.67 182.01 -169.34 181.02 -169 180 C-164.66666667 177 -164.66666667 177 -162 177 C-162 176.01 -162 175.02 -162 174 C-161.0409375 173.566875 -161.0409375 173.566875 -160.0625 173.125 C-157.84793921 172.17176549 -157.84793921 172.17176549 -157 170 C-156.01 170 -155.02 170 -154 170 C-154 169.34 -154 168.68 -154 168 C-153.38125 167.731875 -152.7625 167.46375 -152.125 167.1875 C-149.7004767 166.04443152 -149.7004767 166.04443152 -148 163 C-145.375 162.3125 -145.375 162.3125 -143 162 C-143 161.01 -143 160.02 -143 159 C-141.68 159 -140.36 159 -139 159 C-139 158.34 -139 157.68 -139 157 C-137.824375 156.5978125 -137.824375 156.5978125 -136.625 156.1875 C-133.71885077 155.15185568 -133.71885077 155.15185568 -132 152 C-128.875 150.8125 -128.875 150.8125 -126 150 C-126 149.34 -126 148.68 -126 148 C-124.56570999 147.32645501 -123.12742943 146.66140299 -121.6875 146 C-120.88699219 145.62875 -120.08648438 145.2575 -119.26171875 144.875 C-117 144 -117 144 -114 144 C-113.67 143.01 -113.34 142.02 -113 141 C-111.34795544 140.29788106 -109.68076231 139.63028587 -108 139 C-107.67 138.34 -107.34 137.68 -107 137 C-101.94213419 134.41945622 -97.64033795 133.49476649 -92 133 C-91.67 132.01 -91.34 131.02 -91 130 C-87.7 129.34 -84.4 128.68 -81 128 C-81 127.34 -81 126.68 -81 126 C-78.39688008 125.32900016 -75.79264602 124.66304662 -73.1875 124 C-72.44951172 123.80921875 -71.71152344 123.6184375 -70.95117188 123.421875 C-67.89464659 122.64737086 -65.16626522 122 -62 122 C-62 121.34 -62 120.68 -62 120 C-59.91798472 119.49453964 -57.83432933 118.99583165 -55.75 118.5 C-54.58984375 118.2215625 -53.4296875 117.943125 -52.234375 117.65625 C-49 117 -49 117 -45 117 C-45 116.34 -45 115.68 -45 115 C-40.03856868 114.42382884 -35.07642204 113.85442584 -30.11352539 113.29101562 C-28.4287471 113.09881965 -26.74417081 112.90484359 -25.05981445 112.70898438 C-22.62503445 112.42618919 -20.18957612 112.15001285 -17.75390625 111.875 C-17.01290176 111.78750488 -16.27189728 111.70000977 -15.50843811 111.60986328 C-10.24309707 111.02427308 -5.37178072 111 0 111 C0 74.37 0 37.74 0 0 Z " fill="#52CCB8" transform="translate(768,318)"/>
<path d="M0 0 C0 0.33 0 0.66 0 1 C-2.64 1 -5.28 1 -8 1 C-8 1.66 -8 2.32 -8 3 C-27.17048359 6.96875076 -47.59206916 5.42071128 -67 4 C-67 3.67 -67 3.34 -67 3 C-50.5 3 -34 3 -17 3 C-17 2.34 -17 1.68 -17 1 C-11.29309366 0.00749455 -5.78591511 -0.10477512 0 0 Z " fill="#A13C1F" transform="translate(322,608)"/>
<path d="M0 0 C1.2077558 3.62326739 0.54311128 4.64146369 -1 8 C-1.66 8 -2.32 8 -3 8 C-2.01 9.485 -2.01 9.485 -1 11 C-1 11.99 -1 12.98 -1 14 C-1.99 14 -2.98 14 -4 14 C-4.99 16.64 -5.98 19.28 -7 22 C-7.66 22 -8.32 22 -9 22 C-9.12375 22.763125 -9.2475 23.52625 -9.375 24.3125 C-10 27 -10 27 -12 30 C-11.45144652 25.428721 -10.58255197 21.32564205 -9 17 C-8.34 17 -7.68 17 -7 17 C-6.79503906 16.22914063 -6.59007813 15.45828125 -6.37890625 14.6640625 C-6.10949219 13.66117188 -5.84007813 12.65828125 -5.5625 11.625 C-5.29566406 10.62726562 -5.02882813 9.62953125 -4.75390625 8.6015625 C-4 6 -4 6 -3 4 C-2.34 4 -1.68 4 -1 4 C-0.67 2.68 -0.34 1.36 0 0 Z " fill="#9F391A" transform="translate(120,609)"/>
<path d="M0 0 C0.99 0.33 1.98 0.66 3 1 C3 5.95 3 10.9 3 16 C2.01 16.33 1.02 16.66 0 17 C0 11.39 0 5.78 0 0 Z " fill="#A23D1A" transform="translate(234,526)"/>
<path d="M0 0 C0.33 0.66 0.66 1.32 1 2 C1.66 2 2.32 2 3 2 C3 2.99 3 3.98 3 5 C4.32 4.67 5.64 4.34 7 4 C6.649375 4.845625 6.29875 5.69125 5.9375 6.5625 C4.87722491 10.45017533 5.21685128 13.08425639 6 17 C6.66 17 7.32 17 8 17 C8 18.32 8 19.64 8 21 C7.34 21 6.68 21 6 21 C5.49487756 19.39743892 4.99608373 17.79288208 4.5 16.1875 C4.08234375 14.84751953 4.08234375 14.84751953 3.65625 13.48046875 C3 11 3 11 3 8 C2.34 8 1.68 8 1 8 C0.67 5.36 0.34 2.72 0 0 Z " fill="#A13C1D" transform="translate(224,421)"/>
<path d="M0 0 C2.31 0 4.62 0 7 0 C7 0.66 7 1.32 7 2 C9.97 2.495 9.97 2.495 13 3 C13.33 2.01 13.66 1.02 14 0 C14 1.32 14 2.64 14 4 C16.97 4.66 19.94 5.32 23 6 C23 6.66 23 7.32 23 8 C21.68 8 20.36 8 19 8 C19 7.34 19 6.68 19 6 C18.0925 5.896875 17.185 5.79375 16.25 5.6875 C10.73717848 4.91456832 5.37884538 3.40432909 0 2 C0 1.34 0 0.68 0 0 Z " fill="#9B3113" transform="translate(323,609)"/>
<path d="M0 0 C0 0.33 0 0.66 0 1 C-1.65 1 -3.3 1 -5 1 C-5 1.66 -5 2.32 -5 3 C-10.94 3 -16.88 3 -23 3 C-23 2.34 -23 1.68 -23 1 C-15.31516461 0.32546899 -7.71589817 -0.1567564 0 0 Z " fill="#901C01" transform="translate(392,382)"/>
<path d="M0 0 C2.64 0 5.28 0 8 0 C8 0.66 8 1.32 8 2 C4.73172393 2.70005804 1.46007824 3.38286244 -1.8125 4.0625 C-2.74126953 4.26166016 -3.67003906 4.46082031 -4.62695312 4.66601562 C-5.51962891 4.84970703 -6.41230469 5.03339844 -7.33203125 5.22265625 C-8.56530151 5.48187866 -8.56530151 5.48187866 -9.82348633 5.74633789 C-12 6 -12 6 -15 5 C-10.1956792 2.5978396 -5.26896105 2.38877771 0 2 C0 1.34 0 0.68 0 0 Z " fill="#9F3718" transform="translate(239,283)"/>
<path d="M0 0 C0.99 0 1.98 0 3 0 C3 1.65 3 3.3 3 5 C-5.07953776 6.81344335 -12.73252149 7.23658921 -21 7 C-21 6.67 -21 6.34 -21 6 C-14.07 5.34 -7.14 4.68 0 4 C0 2.68 0 1.36 0 0 Z " fill="#992B0C" transform="translate(364,314)"/>
<path d="M0 0 C9.41002278 0.96355353 9.41002278 0.96355353 14 2 C14 2.66 14 3.32 14 4 C18.29 4.33 22.58 4.66 27 5 C27 5.33 27 5.66 27 6 C20.4294834 6.24794402 14.43028541 5.32388229 8 4 C8 3.34 8 2.68 8 2 C5.36 1.67 2.72 1.34 0 1 C0 0.67 0 0.34 0 0 Z " fill="#96260B" transform="translate(354,619)"/>
<path d="M0 0 C0 3 0 3 -2.1875 5.375 C-3.115625 6.24125 -4.04375 7.1075 -5 8 C-6.2684375 9.3303125 -6.2684375 9.3303125 -7.5625 10.6875 C-9.72207159 12.73632433 -11.35381587 13.77141451 -14 15 C-14.33 15.66 -14.66 16.32 -15 17 C-14.44841898 13.29305107 -13.11773346 11.89657629 -10.25 9.5625 C-6.98683974 6.83831773 -3.95918422 4.04885647 -1 1 C-0.67 0.67 -0.34 0.34 0 0 Z " fill="#96290B" transform="translate(172,307)"/>
<path d="M0 0 C0.99 0 1.98 0 3 0 C3 0.66 3 1.32 3 2 C4.093125 2.28875 5.18625 2.5775 6.3125 2.875 C10 4 10 4 13 6 C13 6.66 13 7.32 13 8 C12.01 8 11.02 8 10 8 C9.67 7.34 9.34 6.68 9 6 C7.68 6 6.36 6 5 6 C3.65835921 5.7018576 2.32148827 5.37756808 1 5 C0.67 5.99 0.34 6.98 0 8 C0 5.36 0 2.72 0 0 Z " fill="#973013" transform="translate(337,327)"/>
<path d="M0 0 C2.31 0 4.62 0 7 0 C7 0.66 7 1.32 7 2 C4.93918639 2.50690584 2.87626474 3.00524619 0.8125 3.5 C-0.91033203 3.91765625 -0.91033203 3.91765625 -2.66796875 4.34375 C-5.56818829 4.91495385 -8.06096385 5.13283779 -11 5 C-10.67 4.34 -10.34 3.68 -10 3 C-7.71484375 2.5859375 -7.71484375 2.5859375 -4.9375 2.375 C-4.01839844 2.30023437 -3.09929687 2.22546875 -2.15234375 2.1484375 C-1.44207031 2.09945312 -0.73179687 2.05046875 0 2 C0 1.34 0 0.68 0 0 Z " fill="#9F3A1C" transform="translate(202,549)"/>
<path d="M0 0 C1.89575251 -0.02721176 3.79161979 -0.04649136 5.6875 -0.0625 C6.74324219 -0.07410156 7.79898437 -0.08570313 8.88671875 -0.09765625 C11.72410262 -0.00865425 14.2438919 0.35060162 17 1 C17 1.66 17 2.32 17 3 C13.7 3 10.4 3 7 3 C7 2.34 7 1.68 7 1 C4.69 1 2.38 1 0 1 C0 0.67 0 0.34 0 0 Z " fill="#95280C" transform="translate(280,282)"/>
<path d="M0 0 C0.66 1.32 1.32 2.64 2 4 C-1.63 4 -5.26 4 -9 4 C-9.33 3.01 -9.66 2.02 -10 1 C-6.61981469 -0.04005702 -3.5219721 -0.08004482 0 0 Z " fill="#AE5735" transform="translate(285,281)"/>
<path d="M0 0 C0 0.33 0 0.66 0 1 C-2.64 1 -5.28 1 -8 1 C-8 1.66 -8 2.32 -8 3 C-10.64 3.33 -13.28 3.66 -16 4 C-16.33 3.01 -16.66 2.02 -17 1 C-11.29309366 0.00749455 -5.78591511 -0.10477512 0 0 Z " fill="#9A2D0F" transform="translate(322,608)"/>
<path d="M0 0 C0.66 0.66 1.32 1.32 2 2 C1.34 2 0.68 2 0 2 C0 2.66 0 3.32 0 4 C-3.3 4 -6.6 4 -10 4 C-10 3.34 -10 2.68 -10 2 C-6.32653229 -0.44897847 -4.33643601 -0.31537716 0 0 Z " fill="#B05B38" transform="translate(527,464)"/>
<path d="M0 0 C0.66 0 1.32 0 2 0 C2.95261487 4.76307437 3.08333357 9.1666528 3 14 C2.67 13.01 2.34 12.02 2 11 C1.34 11 0.68 11 0 11 C-1.125 3.375 -1.125 3.375 0 0 Z " fill="#F8F0EB" transform="translate(178,277)"/>
<path d="M0 0 C0 0.33 0 0.66 0 1 C-4.29 1 -8.58 1 -13 1 C-13 1.66 -13 2.32 -13 3 C-14.98 3.33 -16.96 3.66 -19 4 C-18 1 -18 1 -15.6875 -0.25 C-10.36346486 -1.3328546 -5.36041992 -0.64186258 0 0 Z " fill="#A54321" transform="translate(194,608)"/>
<path d="M0 0 C0.33 1.32 0.66 2.64 1 4 C1.66 4 2.32 4 3 4 C3.33 6.97 3.66 9.94 4 13 C3.01 12.67 2.02 12.34 1 12 C0.63896464 10.18885568 0.28634496 8.37603177 -0.0625 6.5625 C-0.25972656 5.55316406 -0.45695313 4.54382813 -0.66015625 3.50390625 C-0.77230469 2.67761719 -0.88445312 1.85132813 -1 1 C-0.67 0.67 -0.34 0.34 0 0 Z " fill="#F9F1EC" transform="translate(229,440)"/>
<path d="M0 0 C2.97 0.33 5.94 0.66 9 1 C9 1.99 9 2.98 9 4 C7.02 4.66 5.04 5.32 3 6 C2.87625 5.195625 2.7525 4.39125 2.625 3.5625 C2.315625 2.2940625 2.315625 2.2940625 2 1 C1.34 0.67 0.68 0.34 0 0 Z " fill="#A14421" transform="translate(616,476)"/>
<path d="M0 0 C1.77074917 -0.02705729 3.54161711 -0.04642195 5.3125 -0.0625 C6.29863281 -0.07410156 7.28476562 -0.08570313 8.30078125 -0.09765625 C11 0 11 0 14 1 C14 1.66 14 2.32 14 3 C11.03 3 8.06 3 5 3 C5 2.34 5 1.68 5 1 C3.35 1 1.7 1 0 1 C0 0.67 0 0.34 0 0 Z " fill="#9A2E11" transform="translate(578,465)"/>
<path d="M0 0 C7.625 1.875 7.625 1.875 11 3 C11 3.66 11 4.32 11 5 C11.99 5.33 12.98 5.66 14 6 C13.01 6.495 13.01 6.495 12 7 C9.375 6.0625 9.375 6.0625 7 5 C7 4.34 7 3.68 7 3 C4.03 2.505 4.03 2.505 1 2 C0.67 2.99 0.34 3.98 0 5 C0 3.35 0 1.7 0 0 Z " fill="#982E0F" transform="translate(180,253)"/>
<path d="M0 0 C-1 2 -1 2 -3.5625 3.125 C-7.58289462 4.14837318 -10.86509813 4.14258282 -15 4 C-15 3.67 -15 3.34 -15 3 C-10.545 2.505 -10.545 2.505 -6 2 C-6 1.34 -6 0.68 -6 0 C-3.50907189 -1.24546405 -2.58919267 -0.7767578 0 0 Z " fill="#F5E9E4" transform="translate(208,416)"/>
<path d="M0 0 C0.66 0.33 1.32 0.66 2 1 C1.67 1.66 1.34 2.32 1 3 C0.01 3 -0.98 3 -2 3 C-2 3.99 -2 4.98 -2 6 C-2.78375 6.12375 -3.5675 6.2475 -4.375 6.375 C-7.14057822 6.79117993 -7.14057822 6.79117993 -9 9 C-8.75 7.125 -8.75 7.125 -8 5 C-6 3.875 -6 3.875 -4 3 C-3.67 2.34 -3.34 1.68 -3 1 C-2.01 0.67 -1.02 0.34 0 0 Z " fill="#993012" transform="translate(149,564)"/>
<path d="M0 0 C2.64 0 5.28 0 8 0 C7.01 0.33 6.02 0.66 5 1 C5 1.66 5 2.32 5 3 C5.66 3 6.32 3 7 3 C7.66 4.65 8.32 6.3 9 8 C7.1875 7.8125 7.1875 7.8125 5 7 C3.375 4.5625 3.375 4.5625 2 2 C1.34 1.34 0.68 0.68 0 0 Z " fill="#F7F1EC" transform="translate(369,385)"/>
<path d="M0 0 C2.31 0 4.62 0 7 0 C7.33 1.32 7.66 2.64 8 4 C6.35 4 4.7 4 3 4 C2.67 4.66 2.34 5.32 2 6 C2 5.34 2 4.68 2 4 C1.34 4 0.68 4 0 4 C0 2.68 0 1.36 0 0 Z " fill="#B05B3A" transform="translate(575,464)"/>
<path d="M0 0 C1.65 0 3.3 0 5 0 C5 0.66 5 1.32 5 2 C7.97 2.33 10.94 2.66 14 3 C14 3.33 14 3.66 14 4 C8.80790596 4.21192221 4.873261 3.5912689 0 2 C0 1.34 0 0.68 0 0 Z " fill="#9D3315" transform="translate(465,460)"/>
<path d="M0 0 C-0.3125 1.9375 -0.3125 1.9375 -1 4 C-1.99 4.33 -2.98 4.66 -4 5 C-5.37195574 6.29355827 -6.71182656 7.62298702 -8 9 C-8.33 8.34 -8.66 7.68 -9 7 C-8.07347299 5.82460004 -7.13336613 4.65989423 -6.1875 3.5 C-5.66542969 2.8503125 -5.14335938 2.200625 -4.60546875 1.53125 C-3 0 -3 0 0 0 Z " fill="#9A3212" transform="translate(104,383)"/>
<path d="M0 0 C2.6635969 0.35994553 4.58183452 0.71161002 6.8125 2.25 C8.39364795 4.58011277 8.22337696 6.24501755 8 9 C7.67 8.01 7.34 7.02 7 6 C6.38125 5.690625 5.7625 5.38125 5.125 5.0625 C2.59402625 3.79701313 1.55151442 2.32727163 0 0 Z " fill="#EEDED4" transform="translate(400,370)"/>
<path d="M0 0 C1.08667969 0.29197266 1.08667969 0.29197266 2.1953125 0.58984375 C2.74960937 0.74582031 3.30390625 0.90179688 3.875 1.0625 C4.205 2.3825 4.535 3.7025 4.875 5.0625 C2.565 4.4025 0.255 3.7425 -2.125 3.0625 C-2.125 2.4025 -2.125 1.7425 -2.125 1.0625 C-3.445 0.7325 -4.765 0.4025 -6.125 0.0625 C-3.57797384 -1.21101308 -2.6967055 -0.73941925 0 0 Z " fill="#F7EEE9" transform="translate(323.125,287.9375)"/>
<path d="M0 0 C0.33 0.66 0.66 1.32 1 2 C1.66 2 2.32 2 3 2 C3.5345256 3.24420647 4.05208611 4.49570936 4.5625 5.75 C4.85253906 6.44609375 5.14257812 7.1421875 5.44140625 7.859375 C6.07831803 10.30012784 5.80248831 11.6403655 5 14 C4.34 11.69 3.68 9.38 3 7 C2.34 7 1.68 7 1 7 C0.67 4.69 0.34 2.38 0 0 Z " fill="#9D3618" transform="translate(100,698)"/>
<path d="M0 0 C4.455 0.99 4.455 0.99 9 2 C9 2.66 9 3.32 9 4 C10.65 4 12.3 4 14 4 C14 4.33 14 4.66 14 5 C6.25 5.125 6.25 5.125 4 4 C4 3.34 4 2.68 4 2 C2.68 1.67 1.36 1.34 0 1 C0 0.67 0 0.34 0 0 Z " fill="#9A2B0D" transform="translate(99,442)"/>
<path d="M0 0 C2.97 0 5.94 0 9 0 C9 0.66 9 1.32 9 2 C3.06 2.495 3.06 2.495 -3 3 C-2.01 2.67 -1.02 2.34 0 2 C0 1.34 0 0.68 0 0 Z " fill="#922005" transform="translate(161,421)"/>
<path d="M0 0 C-1.65 0.33 -3.3 0.66 -5 1 C-5 1.66 -5 2.32 -5 3 C-7.64 3.33 -10.28 3.66 -13 4 C-12.34 3.67 -11.68 3.34 -11 3 C-11 2.34 -11 1.68 -11 1 C-3.57142857 -1.42857143 -3.57142857 -1.42857143 0 0 Z " fill="#992B0C" transform="translate(207,415)"/>
<path d="M0 0 C0.66 0.33 1.32 0.66 2 1 C1.21625 1.763125 0.4325 2.52625 -0.375 3.3125 C-3.07257717 5.90891805 -3.07257717 5.90891805 -5 9 C-5.99 9 -6.98 9 -8 9 C-8 8.34 -8 7.68 -8 7 C-6.25 5.2734375 -6.25 5.2734375 -4 3.375 C-3.2575 2.74335938 -2.515 2.11171875 -1.75 1.4609375 C-1.1725 0.97882813 -0.595 0.49671875 0 0 Z " fill="#992B0D" transform="translate(181,298)"/>
<path d="M0 0 C1.98 0 3.96 0 6 0 C6 0.66 6 1.32 6 2 C2.37 2.66 -1.26 3.32 -5 4 C-4.67 3.34 -4.34 2.68 -4 2 C-2.68 2 -1.36 2 0 2 C0 1.34 0 0.68 0 0 Z " fill="#9D3516" transform="translate(157,560)"/>
<path d="M0 0 C3.3 0 6.6 0 10 0 C10 0.33 10 0.66 10 1 C8.35 1 6.7 1 5 1 C5 1.66 5 2.32 5 3 C3.02 3 1.04 3 -1 3 C-0.67 2.01 -0.34 1.02 0 0 Z " fill="#9A3415" transform="translate(382,382)"/>
<path d="M0 0 C2.1385485 2.1385485 2.42655063 3.13275314 3 6 C1.35 6.33 -0.3 6.66 -2 7 C-2 5.02 -2 3.04 -2 1 C-1.34 0.67 -0.68 0.34 0 0 Z " fill="#AE5835" transform="translate(180,270)"/>
<path d="M0 0 C0.33 0.99 0.66 1.98 1 3 C0.67 3.66 0.34 4.32 0 5 C-0.66 5 -1.32 5 -2 5 C-2.12375 5.804375 -2.2475 6.60875 -2.375 7.4375 C-2.58125 8.283125 -2.7875 9.12875 -3 10 C-3.99 10.495 -3.99 10.495 -5 11 C-4.55123384 9.35153231 -4.09069512 7.70626545 -3.625 6.0625 C-3.36976563 5.14597656 -3.11453125 4.22945312 -2.8515625 3.28515625 C-2 1 -2 1 0 0 Z " fill="#9A2F11" transform="translate(160,631)"/>
<path d="M0 0 C2.64 0 5.28 0 8 0 C8.33 0.99 8.66 1.98 9 3 C6.03 2.67 3.06 2.34 0 2 C0 1.34 0 0.68 0 0 Z " fill="#F7ECE6" transform="translate(354,621)"/>
<path d="M0 0 C0.66 0 1.32 0 2 0 C2 0.99 2 1.98 2 3 C0.37064759 4.37868281 -1.29749607 5.71274093 -3 7 C-3.33 7.66 -3.66 8.32 -4 9 C-4.66 9 -5.32 9 -6 9 C-6 6 -6 6 -3.5625 3.375 C-2.716875 2.59125 -1.87125 1.8075 -1 1 C-0.67 0.67 -0.34 0.34 0 0 Z " fill="#9A2F12" transform="translate(117,365)"/>
<path d="M0 0 C0.99 0 1.98 0 3 0 C3 0.66 3 1.32 3 2 C5.31 2.33 7.62 2.66 10 3 C10 3.33 10 3.66 10 4 C6.37 4 2.74 4 -1 4 C-0.67 2.68 -0.34 1.36 0 0 Z " fill="#A03D1D" transform="translate(297,283)"/>
<path d="M0 0 C0.33 0.99 0.66 1.98 1 3 C-3.625 7.875 -3.625 7.875 -7 9 C-7 8.01 -7 7.02 -7 6 C-2.65714286 2 -2.65714286 2 0 2 C0 1.34 0 0.68 0 0 Z " fill="#962D0F" transform="translate(134,731)"/>
<path d="M0 0 C0.95465783 2.16967689 1.14401212 3.56328793 0.3984375 5.82421875 C-0.35870385 7.5684743 -1.17609198 9.28627131 -2 11 C-2.66 11 -3.32 11 -4 11 C-4 9.68 -4 8.36 -4 7 C-3.34 7 -2.68 7 -2 7 C-1.34 4.69 -0.68 2.38 0 0 Z " fill="#9E3416" transform="translate(105,641)"/>
<path d="M0 0 C1.98 0 3.96 0 6 0 C6.33 0.99 6.66 1.98 7 3 C4.36 3 1.72 3 -1 3 C-0.67 2.01 -0.34 1.02 0 0 Z " fill="#A03D1A" transform="translate(444,626)"/>
<path d="M0 0 C-1.32 0.33 -2.64 0.66 -4 1 C-4 1.66 -4 2.32 -4 3 C-6.31 3 -8.62 3 -11 3 C-11 2.34 -11 1.68 -11 1 C-7.26562152 0.12132271 -3.83225427 -0.08912219 0 0 Z " fill="#96290A" transform="translate(497,620)"/>
<path d="M0 0 C1.65 0 3.3 0 5 0 C5.33 0.99 5.66 1.98 6 3 C5.01 3.495 5.01 3.495 4 4 C4 3.34 4 2.68 4 2 C2.02 2.66 0.04 3.32 -2 4 C-2.66 3.34 -3.32 2.68 -4 2 C-2.68 2 -1.36 2 0 2 C0 1.34 0 0.68 0 0 Z " fill="#F8F0EB" transform="translate(516,615)"/>
<path d="M0 0 C2 2 2 2 2.125 4.625 C2.08375 5.40875 2.0425 6.1925 2 7 C2.66 7 3.32 7 4 7 C4 8.32 4 9.64 4 11 C3.34 11 2.68 11 2 11 C0.57741188 7.17679443 -0.24042276 4.08718695 0 0 Z " fill="#9A2E0E" transform="translate(228,431)"/>
<path d="M0 0 C0 0.99 0 1.98 0 3 C-4.34285714 7 -4.34285714 7 -7 7 C-7.33 7.66 -7.66 8.32 -8 9 C-7.53918323 4.85264908 -4.48412936 0 0 0 Z " fill="#9B2C0F" transform="translate(129,354)"/>
<path d="M0 0 C0 0.99 0 1.98 0 3 C-4.34285714 7 -4.34285714 7 -7 7 C-7.33 7.66 -7.66 8.32 -8 9 C-7.53918323 4.85264908 -4.48412936 0 0 0 Z " fill="#982E10" transform="translate(139,343)"/>
<path d="M0 0 C2 3 2 3 2 6 C2.66 6.33 3.32 6.66 4 7 C3.34 8.32 2.68 9.64 2 11 C0 9 0 9 -0.1953125 6.8359375 C-0.17210937 6.02382813 -0.14890625 5.21171875 -0.125 4.375 C-0.10695312 3.55773437 -0.08890625 2.74046875 -0.0703125 1.8984375 C-0.04710937 1.27195312 -0.02390625 0.64546875 0 0 Z " fill="#A23F1F" transform="translate(180,274)"/>
<path d="M0 0 C0 3 0 3 -2.375 5.6875 C-5 8 -5 8 -7 8 C-7 5 -7 5 -4.625 2.3125 C-2 0 -2 0 0 0 Z " fill="#962B10" transform="translate(149,715)"/>
<path d="M0 0 C1.39195915 4.17587745 -0.17676781 6.13474776 -2 10 C-2.66 10 -3.32 10 -4 10 C-4 8.68 -4 7.36 -4 6 C-3.34 6 -2.68 6 -2 6 C-1.34 4.02 -0.68 2.04 0 0 Z " fill="#993213" transform="translate(100,653)"/>
<path d="M0 0 C0.99 0.33 1.98 0.66 3 1 C0.66666667 3.33333333 -1.66666667 5.66666667 -4 8 C-4.33 7.34 -4.66 6.68 -5 6 C-3.86525052 2.59575156 -3.03188696 1.78346291 0 0 Z " fill="#9B3113" transform="translate(172,612)"/>
<path d="M0 0 C3.93673644 1.31224548 6.22719294 2.91910327 9 6 C8.01 6.495 8.01 6.495 7 7 C6.401875 6.360625 5.80375 5.72125 5.1875 5.0625 C3.09189663 2.79689611 3.09189663 2.79689611 0 2 C0 1.34 0 0.68 0 0 Z " fill="#962C0F" transform="translate(390,363)"/>
<path d="M0 0 C1.4835001 0.42257276 2.96176424 0.86356322 4.4375 1.3125 C5.67306641 1.67794922 5.67306641 1.67794922 6.93359375 2.05078125 C7.61550781 2.36402344 8.29742187 2.67726563 9 3 C9.33 3.99 9.66 4.98 10 6 C7.5625 5.625 7.5625 5.625 5 5 C4.67 4.34 4.34 3.68 4 3 C1.98330173 1.86649466 1.98330173 1.86649466 0 1 C0 0.67 0 0.34 0 0 Z " fill="#992F10" transform="translate(352,336)"/>
<path d="M0 0 C4.24822374 0.47202486 6.19989709 2.96655518 9 6 C8.34 6.66 7.68 7.32 7 8 C7 7.34 7 6.68 7 6 C6.01 5.67 5.02 5.34 4 5 C2.61423077 3.37667033 1.27358732 1.71275535 0 0 Z " fill="#9A2D10" transform="translate(199,264)"/>
<path d="M0 0 C1.2077558 3.62326739 0.54311128 4.64146369 -1 8 C-1.66 8 -2.32 8 -3 8 C-3.33 8.66 -3.66 9.32 -4 10 C-3.67 8.02 -3.34 6.04 -3 4 C-2.34 4 -1.68 4 -1 4 C-0.67 2.68 -0.34 1.36 0 0 Z " fill="#9C3317" transform="translate(120,609)"/>
<path d="M0 0 C-3 2 -3 2 -5 2 C-5 2.66 -5 3.32 -5 4 C-5.99 4.33 -6.98 4.66 -8 5 C-8.33 4.01 -8.66 3.02 -9 2 C-3.375 -1.125 -3.375 -1.125 0 0 Z " fill="#A03818" transform="translate(156,425)"/>
<path d="M0 0 C0.99 0.33 1.98 0.66 3 1 C2.01 1.66 1.02 2.32 0 3 C-1.19232613 5.05003955 -1.19232613 5.05003955 -2 7 C-2.66 7 -3.32 7 -4 7 C-4 5.68 -4 4.36 -4 3 C-2.1875 1.1875 -2.1875 1.1875 0 0 Z " fill="#F8F0EB" transform="translate(121,358)"/>
<path d="M0 0 C4.35535069 1.16142685 6.64619703 2.07699505 9 6 C6.61435923 5.42415568 4.33317216 4.77772405 2 4 C0.8125 1.9375 0.8125 1.9375 0 0 Z " fill="#9A3013" transform="translate(362,342)"/>
<path d="M0 0 C0.99 0 1.98 0 3 0 C3.33 1.32 3.66 2.64 4 4 C3.01 4.33 2.02 4.66 1 5 C0.67 5.99 0.34 6.98 0 8 C0 5.36 0 2.72 0 0 Z " fill="#9C3B1C" transform="translate(337,327)"/>
<path d="M0 0 C0 0.99 0 1.98 0 3 C-2.31 2.67 -4.62 2.34 -7 2 C-7 1.34 -7 0.68 -7 0 C-4.3333581 -1.33332095 -2.83319697 -0.67102033 0 0 Z " fill="#F8F2ED" transform="translate(307,283)"/>
<path d="M0 0 C0 3 0 3 -2.5 5.6875 C-3.325 6.450625 -4.15 7.21375 -5 8 C-5 5 -5 5 -2.5 2.3125 C-1.675 1.549375 -0.85 0.78625 0 0 Z " fill="#9A2D0C" transform="translate(110,374)"/>
<path d="M0 0 C0 3 0 3 -2.5 5.6875 C-3.325 6.450625 -4.15 7.21375 -5 8 C-5.33 7.34 -5.66 6.68 -6 6 C-4 4 -2 2 0 0 Z " fill="#982909" transform="translate(151,329)"/>
</svg>
